<svg width="594.22449" height="443.57532" version="1.1" viewBox="0 0 157.22189 117.36264" xmlns="http://www.w3.org/2000/svg"><g transform="translate(-16.801424,-84.510142)"><path d="m16.801424 201.02961c14.67334 4.81087 21.301397-12.30285 33.07291-17.57589 9.724893-7.51684 20.572637-14.75876 33.73438-17.00893 13.004251-10.78013 10.522299 6.12968 9.82738 14.92211 6.987316 3.78496 16.827046-1.5577 25.155586-0.81114 8.58806-5.1372 22.57826 8.82349 21.72859 2.17763 14.95786 8.16515-7.75274-14.61902-15.17359-7.60976-7.83712-0.28624-28.510989 9.29837-25.521966-4.87295-0.194785-15.14886 17.354096-8.85154 24.789246-17.63979 8.93641-11.68822 22.4771-17.13078 32.26227-27.9561 7.16937-8.507 2.43516-18.06875 5.40971-27.710393 9.07766-2.780909 12.28549-1.736458 7.98472-4.48848 10.92014 4.79728-3.96896-6.695852-6.61457-7.63043-6.63129-2.445313-14.03196 9.948489-9.10804 15.868213 0.50677 11.2184-4.75911 11.72364-14.35228 13.85606-14.64636 2.08391-28.14696 14.211-43.394206 7.41187-22.151917-1.91227-46.785952 11.6217-53.20015 33.63983-10.076089 7.45467 0.944338 24.57321 9.41753 10.73055 4.050168-11.73395 22.052076-3.86837 8.944417 2.64875-11.542519 3.87894-18.157359 17.06357-29.852299 22.93106-2.565325 6.54361-14.062012 3.77383-15.109638 9.11779z" style="fill:#808080"/></g></svg>
